<svg xmlns="http://www.w3.org/2000/svg" xmlns:xlink="http://www.w3.org/1999/xlink" fill="#ffffff" height="34px" width="34px" version="1.1" id="Layer_1" viewBox="0 0 512 512" xml:space="preserve">

<g id="SVGRepo_bgCarrier" stroke-width="0"/>

<g id="SVGRepo_tracerCarrier" stroke-linecap="round" stroke-linejoin="round"/>

<g id="SVGRepo_iconCarrier"> <g> <g> <path d="M455.638,94.62H351.885V62.876c0-25.707-20.914-46.619-46.619-46.619h-98.531c-25.707,0-46.619,20.914-46.619,46.619 V94.62H56.362C25.283,94.622,0,119.907,0,150.986v68.726v32.295v243.737h512V252.007v-32.295v-68.726 C512,119.907,486.717,94.622,455.638,94.62z M191.462,62.876c0-8.422,6.851-15.272,15.272-15.272h98.531 c8.422,0,15.272,6.851,15.272,15.272V94.62H191.462V62.876z M480.653,464.397H31.347v-20.15h449.306V464.397z M480.653,412.901 H31.347V259.775l176.936,43.847v36.665h101.704V302.07l170.666-42.294V412.901z M239.63,308.942v-19.505h35.876v19.505H239.63z M480.653,227.481l-170.666,42.293V258.09h-3.135v-3.718H205.148v16.178l-173.801-43.07v-76.495 c0-13.795,11.222-25.018,25.016-25.019h103.752h191.769h103.751c13.796,0.001,25.018,11.224,25.018,25.019V227.481z"/> </g> </g> </g>

</svg>